<?xml version="1.0" encoding="utf-8"?>
<!-- Generator: Adobe Illustrator 15.1.0, SVG Export Plug-In . SVG Version: 6.00 Build 0)  -->
<!DOCTYPE svg PUBLIC "-//W3C//DTD SVG 1.1//EN" "http://www.w3.org/Graphics/SVG/1.1/DTD/svg11.dtd">
<svg version="1.1" id="Layer_1" xmlns="http://www.w3.org/2000/svg" xmlns:xlink="http://www.w3.org/1999/xlink" x="0px" y="0px"
	 width="256px" height="256px" viewBox="0 0 256 256" enable-background="new 0 0 256 256" xml:space="preserve">
<path id="svg_2" fill="#5F8A52" d="M63.981,0h15.991v16H63.981V0z"/>
<path id="svg_3" fill="#6B9C5C" d="M79.972,0h31.982v16h15.991v16h15.991v16h-31.982V32H95.963V16H79.972V0z"/>
<path id="svg_8" fill="#5F8A52" d="M47.991,16h15.991v16H47.991V16z"/>
<path id="svg_9" fill="#415E38" d="M63.981,16h15.991v16H63.981V16z"/>
<path id="svg_10" fill="#5F8A52" d="M79.972,16h15.991v16H79.972V16z"/>
<path id="svg_14" fill="#5F8A52" d="M32,32h15.991v16H32V32z"/>
<path id="svg_16" fill="#415E38" d="M79.972,32h15.991v16H79.972V32z"/>
<path id="svg_17" fill="#5F8A52" d="M95.963,32h15.991v16h63.964v16H47.991V48h47.973V32z"/>
<path id="svg_24" fill="#7B573E" d="M79.972,64h15.991v32H79.972V64z"/>
<path id="svg_25" fill="#D5BE9B" d="M95.963,64h47.973v48h-31.982V96h15.991V80h-15.991v16H95.963V64z"/>
<path id="svg_28" d="M111.954,80h15.991v16h-15.991V80z"/>
<path id="svg_30" fill="#5F8A52" d="M63.981,96h15.991v16h15.991v16h15.991v16h31.982v-32h15.99v16h15.991v16h31.981v16h-31.981v16
	h-15.991v16h15.991v48H47.991v-32h15.991v-16h15.991v-16h15.991v-32H47.991v-16h15.991V96z"/>
<path id="svg_31" fill="#415E38" d="M79.972,96h15.991v16H79.972V96z"/>
<path id="svg_32" fill="#7B573E" d="M95.963,96h15.991v16H95.963V96z"/>
<path id="svg_36" fill="#415E38" d="M95.963,112h15.991v16H95.963V112z"/>
<path id="svg_37" fill="#7B573E" d="M111.954,112h31.982v32h-15.991v-16h-15.991V112z"/>
<path id="svg_40" fill="#415E38" d="M111.954,128h15.991v16h-15.991V128z"/>
<path id="svg_42" fill="#7A9A71" d="M32,144h47.972v16H63.981v16H32V144z"/>
<path id="svg_43" fill="#D5BE9B" d="M79.972,144h15.991v16H79.972V144z"/>
<path id="svg_47" fill="#627B5A" d="M63.981,160h15.991v16H63.981V160z"/>
<path id="svg_48" fill="#415E38" d="M79.972,160h15.991v16H79.972V160z"/>
<path id="svg_49" fill="#4F7344" d="M175.918,160h15.991v16h-15.991V160z"/>
<path id="svg_50" fill="#415E38" d="M191.909,160h15.99v16h-15.99V160z"/>
<path id="svg_57" fill="#627B5A" d="M47.991,176h15.991v16H47.991V176z"/>
<path id="svg_58" fill="#415E38" d="M63.981,176h15.991v16H63.981V176z"/>
<path id="svg_59" fill="#4F7344" d="M159.927,176h15.991v16h-15.991V176z"/>
<path id="svg_60" fill="#415E38" d="M175.918,176h15.991v16h-15.991V176z"/>
<path id="svg_66" fill="#415E38" d="M47.991,192h15.991v16H47.991V192z"/>
<path id="svg_68" fill="#D5BE9B" d="M63.981,240h15.991v16H63.981V240z"/>
<path id="svg_70" fill="#D5BE9B" d="M143.937,240h15.99v16h-15.99V240z"/>
<path id="svg_1" fill="#D5BE9B" d="M208.009,144.031H224v16h-15.991V144.031z"/>
</svg>
